<!-- Generated by IcoMoon.io -->
<svg version="1.1" xmlns="http://www.w3.org/2000/svg" width="32" height="32" viewBox="0 0 32 32">
<title>Client4</title>
<path d="M10.682 14.765h-0.001c-0.454 0-0.823 0.332-0.823 0.742v0.001c0 0.41 0.368 0.742 0.823 0.742h0.001c0.454 0 0.823-0.332 0.823-0.742v-0.001c0-0.41-0.368-0.742-0.823-0.742z"></path>
<path d="M16.755 14.528c-0.001-0.569-0.253-1.114-0.699-1.517s-1.051-0.629-1.682-0.63v0c-0.631 0.001-1.236 0.228-1.683 0.63s-0.698 0.948-0.699 1.517v3.138c0 0 4.763-0.478 4.763-3.137v-0z"></path>
<path d="M8.19 18.696c0.001 0.396 0.176 0.775 0.487 1.055s0.731 0.438 1.17 0.439c0.439-0.001 0.86-0.159 1.17-0.439s0.485-0.659 0.487-1.055v-2.183c0 0-3.314 0.333-3.314 2.183zM9.847 19.087c-0.086 0-0.17-0.023-0.241-0.066s-0.127-0.104-0.16-0.176c-0.033-0.072-0.041-0.15-0.025-0.226s0.058-0.146 0.119-0.2c0.061-0.055 0.138-0.092 0.222-0.107s0.171-0.007 0.251 0.022c0.079 0.030 0.147 0.080 0.195 0.144s0.073 0.14 0.073 0.217c0 0.052-0.011 0.103-0.033 0.15s-0.054 0.091-0.094 0.127c-0.040 0.036-0.088 0.065-0.141 0.085s-0.109 0.030-0.166 0.030v-0.001z"></path>
<path d="M12.878 18.384v0.813h-0.167v-0.813h0.167zM13.202 18.731v0.131h-0.369v-0.131h0.369zM13.241 18.384v0.131h-0.408v-0.131h0.408zM14.005 18.771v0.038c0 0.062-0.008 0.117-0.025 0.166s-0.040 0.091-0.071 0.126c-0.030 0.034-0.067 0.060-0.109 0.079s-0.089 0.027-0.14 0.027c-0.051 0-0.098-0.009-0.14-0.027s-0.079-0.044-0.109-0.079c-0.031-0.035-0.055-0.076-0.072-0.126s-0.025-0.105-0.025-0.166v-0.038c0-0.062 0.008-0.118 0.025-0.166s0.040-0.091 0.071-0.126c0.031-0.035 0.067-0.061 0.109-0.079s0.089-0.027 0.14-0.027c0.051 0 0.098 0.009 0.14 0.027s0.079 0.045 0.109 0.079c0.031 0.035 0.055 0.076 0.071 0.126s0.026 0.104 0.026 0.166zM13.836 18.81v-0.040c0-0.043-0.004-0.081-0.012-0.114s-0.019-0.060-0.035-0.083c-0.015-0.022-0.034-0.039-0.056-0.050s-0.047-0.017-0.075-0.017-0.053 0.006-0.075 0.017c-0.022 0.011-0.040 0.028-0.055 0.050s-0.026 0.050-0.034 0.083-0.012 0.071-0.012 0.114v0.040c0 0.043 0.004 0.081 0.012 0.114s0.019 0.060 0.035 0.083c0.015 0.022 0.034 0.039 0.056 0.051s0.047 0.017 0.075 0.017c0.028 0 0.053-0.006 0.075-0.017s0.040-0.028 0.055-0.051c0.015-0.023 0.026-0.050 0.034-0.083s0.012-0.071 0.012-0.114zM14.549 18.984c0-0.015-0.002-0.028-0.007-0.039s-0.012-0.023-0.023-0.032c-0.012-0.010-0.028-0.020-0.049-0.030s-0.048-0.020-0.081-0.030c-0.037-0.012-0.072-0.025-0.105-0.040s-0.062-0.032-0.087-0.052c-0.025-0.020-0.045-0.043-0.059-0.070s-0.021-0.057-0.021-0.092c0-0.034 0.007-0.065 0.022-0.092s0.036-0.052 0.063-0.071c0.027-0.020 0.058-0.036 0.095-0.046s0.077-0.016 0.121-0.016c0.060 0 0.112 0.011 0.157 0.032s0.079 0.051 0.104 0.089c0.025 0.038 0.037 0.081 0.037 0.129h-0.166c0-0.024-0.005-0.045-0.015-0.063s-0.025-0.033-0.045-0.043c-0.020-0.010-0.045-0.016-0.075-0.016-0.029 0-0.053 0.004-0.073 0.013s-0.034 0.020-0.044 0.035c-0.010 0.015-0.014 0.031-0.014 0.049 0 0.014 0.003 0.026 0.010 0.037s0.018 0.022 0.031 0.031 0.031 0.019 0.051 0.027c0.020 0.009 0.043 0.017 0.070 0.025 0.044 0.013 0.083 0.028 0.117 0.045s0.062 0.036 0.085 0.056 0.040 0.044 0.051 0.071c0.012 0.026 0.017 0.056 0.017 0.090 0 0.035-0.007 0.067-0.021 0.095s-0.034 0.052-0.060 0.071c-0.026 0.019-0.057 0.034-0.093 0.044s-0.076 0.015-0.121 0.015c-0.040 0-0.080-0.005-0.119-0.016s-0.075-0.027-0.107-0.049c-0.032-0.022-0.057-0.049-0.076-0.083s-0.028-0.073-0.028-0.119h0.168c0 0.025 0.004 0.047 0.012 0.064s0.019 0.032 0.033 0.042c0.014 0.011 0.032 0.019 0.051 0.023s0.042 0.007 0.066 0.007c0.029 0 0.053-0.004 0.071-0.012s0.033-0.020 0.042-0.034c0.009-0.015 0.014-0.031 0.014-0.049zM15.193 18.384v0.813h-0.167v-0.813h0.167zM15.443 18.384v0.131h-0.663v-0.131h0.663zM16.084 19.066v0.131h-0.432v-0.131h0.432zM15.706 18.384v0.813h-0.167v-0.813h0.167zM16.027 18.715v0.127h-0.376v-0.127h0.376zM16.083 18.384v0.131h-0.432v-0.131h0.432zM16.181 18.384h0.303c0.062 0 0.116 0.009 0.16 0.028s0.080 0.046 0.104 0.083 0.036 0.081 0.036 0.134c0 0.044-0.007 0.081-0.022 0.112s-0.035 0.057-0.062 0.078c-0.026 0.020-0.057 0.037-0.093 0.049l-0.053 0.028h-0.263l-0.001-0.131h0.196c0.029 0 0.054-0.005 0.073-0.016s0.034-0.025 0.044-0.044c0.010-0.019 0.015-0.040 0.015-0.065 0-0.026-0.005-0.049-0.015-0.068s-0.024-0.034-0.044-0.044c-0.020-0.010-0.044-0.015-0.074-0.015h-0.136v0.681h-0.167v-0.813zM16.636 19.196l-0.185-0.362 0.177-0.001 0.188 0.355v0.008h-0.179zM17.515 18.907h-0.207v-0.131h0.207c0.032 0 0.058-0.005 0.078-0.016s0.035-0.026 0.044-0.045 0.014-0.040 0.014-0.064c0-0.024-0.005-0.047-0.014-0.068s-0.024-0.038-0.044-0.050c-0.020-0.013-0.046-0.019-0.078-0.019h-0.149v0.681h-0.167v-0.813h0.316c0.064 0 0.118 0.012 0.163 0.035s0.081 0.054 0.105 0.094 0.036 0.086 0.036 0.138c0 0.052-0.012 0.098-0.036 0.136s-0.059 0.068-0.105 0.089c-0.045 0.021-0.1 0.031-0.163 0.031zM18.48 19.066v0.131h-0.432v-0.131h0.432zM18.102 18.384v0.813h-0.167v-0.813h0.167zM18.424 18.715v0.127h-0.376v-0.127h0.376zM18.479 18.384v0.131h-0.432v-0.131h0.432zM18.952 18.384v0.813h-0.167v-0.813h0.167zM19.202 18.384v0.131h-0.663v-0.131h0.663zM19.843 19.066v0.131h-0.432v-0.131h0.432zM19.465 18.384v0.813h-0.167v-0.813h0.167zM19.786 18.715v0.127h-0.376v-0.127h0.376zM19.842 18.384v0.131h-0.432v-0.131h0.432zM19.94 18.384h0.303c0.062 0 0.115 0.009 0.16 0.028s0.080 0.046 0.104 0.083 0.036 0.081 0.036 0.134c0 0.044-0.007 0.081-0.022 0.112s-0.035 0.057-0.062 0.078c-0.026 0.020-0.058 0.037-0.093 0.049l-0.053 0.028h-0.263l-0.001-0.131h0.196c0.029 0 0.054-0.005 0.073-0.016s0.034-0.025 0.044-0.044c0.010-0.019 0.015-0.040 0.015-0.065 0-0.026-0.005-0.049-0.014-0.068s-0.024-0.034-0.044-0.044c-0.020-0.010-0.044-0.015-0.074-0.015h-0.136v0.681h-0.167v-0.813zM20.395 19.196l-0.185-0.362 0.177-0.001 0.187 0.355v0.008h-0.179zM21.095 18.984c0-0.015-0.002-0.028-0.007-0.039s-0.012-0.023-0.023-0.032c-0.011-0.010-0.028-0.020-0.049-0.030s-0.048-0.020-0.081-0.030c-0.037-0.012-0.072-0.025-0.105-0.040s-0.062-0.032-0.087-0.052c-0.025-0.020-0.045-0.043-0.059-0.070s-0.021-0.057-0.021-0.092c0-0.034 0.007-0.065 0.022-0.092s0.036-0.052 0.062-0.071c0.027-0.020 0.058-0.036 0.095-0.046s0.077-0.016 0.121-0.016c0.060 0 0.112 0.011 0.157 0.032s0.079 0.051 0.104 0.089c0.025 0.038 0.037 0.081 0.037 0.129h-0.166c0-0.024-0.005-0.045-0.015-0.063s-0.025-0.033-0.045-0.043c-0.020-0.010-0.045-0.016-0.075-0.016-0.029 0-0.053 0.004-0.073 0.013s-0.034 0.020-0.043 0.035c-0.010 0.015-0.014 0.031-0.014 0.049 0 0.014 0.003 0.026 0.010 0.037s0.017 0.022 0.031 0.031c0.014 0.010 0.031 0.019 0.051 0.027s0.043 0.017 0.070 0.025c0.044 0.013 0.083 0.028 0.117 0.045s0.062 0.036 0.085 0.056 0.040 0.044 0.051 0.071c0.011 0.026 0.017 0.056 0.017 0.090 0 0.035-0.007 0.067-0.021 0.095s-0.034 0.052-0.060 0.071c-0.026 0.019-0.057 0.034-0.093 0.044s-0.076 0.015-0.121 0.015c-0.040 0-0.080-0.005-0.119-0.016s-0.074-0.027-0.106-0.049c-0.032-0.022-0.057-0.049-0.076-0.083s-0.028-0.073-0.028-0.119h0.168c0 0.025 0.004 0.047 0.012 0.064s0.019 0.032 0.033 0.042c0.014 0.011 0.032 0.019 0.051 0.023s0.042 0.007 0.066 0.007c0.029 0 0.053-0.004 0.071-0.012s0.033-0.020 0.042-0.034c0.009-0.015 0.014-0.031 0.014-0.049z"></path>
</svg>
