<!-- Generated by IcoMoon.io -->
<svg version="1.1" xmlns="http://www.w3.org/2000/svg" width="32" height="32" viewBox="0 0 32 32">
<title>Client3</title>
<path d="M13.107 20.043c0.003 0 0.006 0.001 0.009 0.002s0.005 0.003 0.007 0.005l0.042 0.040c-0.033 0.032-0.073 0.058-0.118 0.075-0.053 0.019-0.11 0.028-0.168 0.027-0.054 0.001-0.108-0.008-0.158-0.025-0.045-0.016-0.086-0.040-0.119-0.071-0.034-0.032-0.060-0.069-0.077-0.11-0.018-0.045-0.027-0.093-0.027-0.141-0.001-0.048 0.009-0.096 0.029-0.141 0.018-0.041 0.046-0.078 0.082-0.11s0.079-0.055 0.126-0.071c0.052-0.017 0.107-0.026 0.162-0.025 0.052-0.001 0.103 0.007 0.151 0.023 0.042 0.015 0.080 0.037 0.113 0.063l-0.035 0.042c-0.002 0.003-0.005 0.006-0.009 0.008s-0.009 0.004-0.014 0.003c-0.005-0-0.011-0.002-0.015-0.005l-0.019-0.011-0.026-0.014c-0.011-0.005-0.023-0.010-0.035-0.014-0.016-0.005-0.032-0.009-0.048-0.011-0.021-0.003-0.042-0.005-0.063-0.005-0.040-0-0.080 0.006-0.117 0.019-0.035 0.012-0.066 0.030-0.091 0.053-0.026 0.024-0.046 0.053-0.059 0.084-0.015 0.036-0.022 0.073-0.022 0.111-0.001 0.038 0.007 0.077 0.022 0.113 0.013 0.031 0.033 0.060 0.058 0.084 0.024 0.023 0.054 0.041 0.087 0.052s0.071 0.018 0.108 0.018c0.021 0 0.043-0.001 0.064-0.004 0.035-0.004 0.068-0.014 0.097-0.030 0.015-0.008 0.029-0.018 0.042-0.028 0.005-0.004 0.012-0.007 0.020-0.007z"></path>
<path d="M14.321 19.844c0.001 0.048-0.009 0.095-0.028 0.14-0.017 0.041-0.044 0.078-0.079 0.108s-0.077 0.055-0.124 0.071c-0.103 0.034-0.217 0.034-0.32 0-0.047-0.016-0.089-0.041-0.124-0.071s-0.062-0.069-0.080-0.11c-0.038-0.090-0.038-0.189 0-0.28 0.018-0.041 0.045-0.078 0.080-0.11 0.035-0.030 0.077-0.053 0.124-0.069 0.103-0.034 0.217-0.034 0.32 0 0.047 0.016 0.089 0.041 0.124 0.071s0.062 0.068 0.079 0.108c0.019 0.045 0.029 0.093 0.028 0.141zM14.211 19.844c0.001-0.038-0.006-0.076-0.020-0.112-0.012-0.031-0.031-0.060-0.056-0.084-0.025-0.023-0.055-0.041-0.089-0.053-0.075-0.025-0.158-0.025-0.232 0-0.034 0.012-0.064 0.030-0.089 0.053-0.026 0.024-0.045 0.053-0.057 0.084-0.027 0.073-0.027 0.151 0 0.225 0.012 0.031 0.031 0.060 0.057 0.084 0.025 0.023 0.055 0.041 0.089 0.053 0.075 0.024 0.157 0.024 0.232 0 0.034-0.012 0.064-0.030 0.089-0.053 0.025-0.024 0.044-0.053 0.056-0.084 0.014-0.036 0.021-0.074 0.020-0.112z"></path>
<path d="M15.15 19.962l0.011 0.025c0.004-0.009 0.008-0.017 0.012-0.025s0.009-0.017 0.014-0.025l0.269-0.417c0.005-0.007 0.010-0.012 0.015-0.013 0.007-0.002 0.015-0.003 0.022-0.002h0.079v0.679h-0.094v-0.499c0-0.006 0-0.014 0-0.021s-0.001-0.016 0-0.023l-0.27 0.423c-0.003 0.006-0.009 0.012-0.016 0.015s-0.015 0.006-0.023 0.006h-0.015c-0.008 0-0.016-0.002-0.023-0.006s-0.012-0.009-0.016-0.016l-0.278-0.426c0 0.008 0 0.016 0 0.024s0 0.015 0 0.022v0.499h-0.091v-0.677h0.079c0.007-0 0.015 0 0.022 0.002s0.012 0.007 0.015 0.013l0.274 0.418c0.005 0.008 0.010 0.016 0.014 0.024z"></path>
<path d="M16.161 19.928v0.254h-0.105v-0.678h0.235c0.044-0.001 0.088 0.004 0.131 0.015 0.034 0.008 0.066 0.023 0.093 0.042 0.023 0.018 0.041 0.041 0.053 0.066 0.012 0.028 0.018 0.057 0.018 0.087 0 0.030-0.006 0.059-0.019 0.087-0.013 0.026-0.032 0.049-0.057 0.068-0.027 0.020-0.059 0.036-0.093 0.045-0.041 0.011-0.084 0.016-0.127 0.016l-0.127-0.002zM16.161 19.855h0.127c0.028 0 0.055-0.003 0.081-0.010 0.022-0.006 0.042-0.016 0.059-0.029 0.016-0.012 0.028-0.028 0.036-0.045 0.009-0.018 0.013-0.038 0.013-0.057 0.001-0.019-0.002-0.038-0.011-0.055s-0.021-0.033-0.037-0.046c-0.040-0.027-0.091-0.040-0.141-0.036h-0.127v0.279z"></path>
<path d="M17.574 20.183h-0.083c-0.008 0-0.017-0.002-0.023-0.006s-0.011-0.010-0.014-0.016l-0.072-0.164h-0.359l-0.074 0.164c-0.003 0.006-0.007 0.011-0.013 0.015s-0.015 0.007-0.024 0.007h-0.083l0.315-0.679h0.109l0.32 0.679zM17.054 19.931h0.297l-0.125-0.276c-0.010-0.021-0.017-0.042-0.024-0.064l-0.012 0.035c-0.004 0.011-0.008 0.021-0.012 0.029l-0.124 0.276z"></path>
<path d="M18.028 19.507c0.006 0.003 0.012 0.007 0.016 0.012l0.46 0.512c0-0.008 0-0.016 0-0.024s0-0.015 0-0.022v-0.481h0.094v0.679h-0.053c-0.007 0-0.015-0.001-0.022-0.004s-0.012-0.008-0.017-0.013l-0.46-0.511c0 0.008 0 0.016 0 0.023s0 0.014 0 0.021v0.484h-0.094v-0.679h0.056c0.006-0 0.013 0.001 0.019 0.003z"></path>
<path d="M19.373 19.913v0.27h-0.105v-0.27l-0.291-0.409h0.094c0.008-0 0.016 0.002 0.023 0.006s0.010 0.010 0.014 0.015l0.182 0.264c0.007 0.011 0.014 0.022 0.019 0.031s0.009 0.019 0.013 0.029l0.014-0.029c0.005-0.011 0.011-0.021 0.018-0.031l0.179-0.265c0.004-0.005 0.008-0.010 0.014-0.014s0.014-0.007 0.023-0.007h0.095l-0.291 0.411z"></path>
<path d="M15.098 18.365c0.046 0.005 0.092 0.009 0.139 0.013 0.709-0.271 1.31-0.715 1.725-1.276s0.629-1.214 0.613-1.878l-0.782-0.668c0.159 0.707 0.085 1.438-0.215 2.11s-0.812 1.261-1.48 1.699z"></path>
<path d="M14.819 18.334l0.021 0.004c0.714-0.436 1.259-1.046 1.563-1.75s0.355-1.469 0.144-2.198l-1.114-0.951c0.45 0.782 0.632 1.657 0.523 2.524s-0.504 1.689-1.138 2.372z"></path>
<path d="M18.595 16.008c-0.189 0.729-0.649 1.387-1.31 1.876-0.193 0.143-0.402 0.271-0.623 0.382 0.539-0.135 1.034-0.374 1.447-0.699s0.734-0.726 0.937-1.173l-0.452-0.385z"></path>
<path d="M18.418 15.901l-0.643-0.549c-0.012 0.626-0.221 1.239-0.604 1.773s-0.926 0.971-1.574 1.265h0.003c0.144-0 0.288-0.007 0.432-0.022 0.605-0.211 1.14-0.547 1.556-0.977s0.701-0.942 0.83-1.49z"></path>
<path d="M14.912 13.037l-0.767-0.656c-0.686 0.226-1.276 0.624-1.692 1.142s-0.641 1.131-0.643 1.759v0c0.003 0.694 0.276 1.368 0.777 1.914s1.201 0.934 1.989 1.103c0.704-0.732 1.115-1.637 1.176-2.584s-0.234-1.884-0.84-2.677z"></path>
<path d="M20.19 15.8c-0.003-0.823-0.387-1.613-1.068-2.195s-1.605-0.91-2.569-0.913c-0.445-0-0.887 0.070-1.302 0.207l4.697 4.013c0.161-0.355 0.243-0.732 0.243-1.112z"></path>
</svg>
