<svg xmlns="http://www.w3.org/2000/svg" width="32" height="32"><path d="M15.641 11.797h-.026l-.12-.004h-.087c-.076 0-.153.002-.229.006h-.017a5.384 5.384 0 0 0-2.003.511l-.082.04v4.217l.193-.065c.169-.058.349-.11.536-.159a6.578 6.578 0 0 1 1.542-.205v.554a3.39 3.39 0 0 0-.203.006h-.016a6.173 6.173 0 0 0-2.599.733v-5.409a5.68 5.68 0 0 1 1.483-.603 5.682 5.682 0 0 1 1.397-.18h.081c.097.002.192.007.281.014.235.017.468.054.696.111v.545a4.264 4.264 0 0 0-.675-.102l-.014-.001c-.047-.004-.094-.008-.138-.008zm.96.558c.121.009.246.014.373.014a6.013 6.013 0 0 0 1.469-.188 6.078 6.078 0 0 0 1.413-.551v5.313c-.464.27-.963.473-1.483.603a5.73 5.73 0 0 1-1.397.18 4.257 4.257 0 0 1-1.06-.125v-5.347a4.761 4.761 0 0 0 .686.103zm2.703.041-.193.065a6.55 6.55 0 0 1-2.137.365c-.126 0-.241-.003-.353-.011l-.154-.01v4.338l.132.012c.122.011.249.016.376.016a5.161 5.161 0 0 0 1.261-.163 5.31 5.31 0 0 0 .985-.354l.082-.04v-4.219zM12.902 19.279a.283.283 0 0 0-.214-.086.31.31 0 0 0-.22.086.308.308 0 0 0-.084.217v.723a.3.3 0 0 0 .1.245.253.253 0 0 0 .099.051c.035.01.071.015.108.015a.292.292 0 0 0 .213-.092.303.303 0 0 0 .086-.212v-.081h-.189v.064a.154.154 0 0 1-.011.064.122.122 0 0 1-.027.041.134.134 0 0 1-.08.028c-.017.002-.034-.001-.05-.007s-.029-.018-.039-.031a.166.166 0 0 1-.025-.097v-.674a.239.239 0 0 1 .023-.108c.01-.015.024-.027.04-.035s.035-.011.052-.008a.1.1 0 0 1 .084.041.154.154 0 0 1 .031.097v.062h.187v-.074a.36.36 0 0 0-.023-.126.3.3 0 0 0-.063-.102zM14.025 19.27a.332.332 0 0 0-.428 0 .304.304 0 0 0-.1.241v.693a.289.289 0 0 0 .1.239c.029.027.063.048.1.061a.336.336 0 0 0 .226 0 .297.297 0 0 0 .2-.3v-.693a.313.313 0 0 0-.098-.241zm-.089.935a.124.124 0 0 1-.037.1c-.025.021-.056.032-.089.032s-.064-.011-.089-.032a.124.124 0 0 1-.037-.1v-.693a.124.124 0 0 1 .037-.1c.025-.021.056-.032.089-.032s.064.011.089.032a.124.124 0 0 1 .037.1v.693zM15.499 20.514v-1.312h-.182l-.239.695h-.003l-.24-.695h-.18v1.312h.187v-.798h.003l.184.564h.094l.185-.564h.003v.798h.187zM16.563 19.294a.267.267 0 0 0-.106-.072.42.42 0 0 0-.136-.02h-.279v1.312h.187v-.512h.096a.344.344 0 0 0 .169-.036.275.275 0 0 0 .103-.1.316.316 0 0 0 .043-.114.925.925 0 0 0 .01-.149.733.733 0 0 0-.018-.187.277.277 0 0 0-.069-.121zm-.096.4a.175.175 0 0 1-.017.068.112.112 0 0 1-.048.046.191.191 0 0 1-.088.016h-.085v-.446h.096a.185.185 0 0 1 .084.016.108.108 0 0 1 .044.048c.01.023.016.048.016.073v.087c0 .03.002.062 0 .09h-.002zM17.449 19.202h-.153l-.289 1.312h.187l.055-.282h.255l.055.282h.187l-.296-1.312zm-.172.852.092-.476h.003l.092.476h-.187zM18.657 19.992h-.003l-.282-.79h-.18v1.312h.187v-.789h.004l.286.789h.176v-1.312h-.187v.79zM19.8 19.202l-.15.522h-.004l-.15-.522h-.198l.257.758v.555h.187v-.555l.257-.758h-.198zM12.381 20.885h.09v.253h.061v-.253h.09v-.052h-.241v.052zM13.138 20.833l-.118.305h.065l.025-.069h.121l.026.069h.066l-.121-.305h-.065zm-.009.184.041-.113.041.113h-.083zM13.887 21.025h.07v.039a.12.12 0 0 1-.072.026c-.012.001-.025-.002-.036-.007s-.021-.013-.029-.022a.13.13 0 0 1-.023-.079c0-.068.029-.102.088-.102a.065.065 0 0 1 .069.048l.06-.012c-.013-.06-.056-.09-.129-.09a.153.153 0 0 0-.106.039c-.015.015-.027.034-.035.054s-.011.042-.009.063a.163.163 0 0 0 .039.114.15.15 0 0 0 .116.045.185.185 0 0 0 .129-.048v-.12h-.132v.051zM14.652 20.833h-.062v.305h.213v-.052h-.152v-.253zM15.299 20.833h-.062v.305h.062v-.305zM15.931 21.036l-.125-.203h-.06v.305h.057v-.199l.122.199h.061v-.305h-.056v.203zM16.502 21.003h.152v-.052h-.152v-.067h.163v-.052h-.225v.305h.231v-.052h-.17v-.082zM17.888 20.953h-.12v-.12h-.061v.305h.061v-.133h.12v.133h.061v-.305h-.061v.12zM18.463 21.003h.152v-.052h-.152v-.067h.164v-.052h-.225v.305h.231v-.052h-.17v-.082zM19.242 21.003c.053-.008.08-.036.08-.085.002-.013 0-.026-.006-.038s-.014-.022-.024-.03a.172.172 0 0 0-.089-.018h-.129v.305h.061v-.127h.012a.083.083 0 0 1 .038.007.077.077 0 0 1 .022.022l.066.097h.073l-.037-.06a.213.213 0 0 0-.067-.073zm-.061-.042h-.045v-.077h.048a.162.162 0 0 1 .062.007c.004.004.008.009.01.014s.003.011.003.017c0 .006-.002.012-.005.017s-.007.01-.012.013a.162.162 0 0 1-.062.007zM19.83 21.003h.152v-.052h-.152v-.067h.164v-.052h-.226v.305h.231v-.052h-.17v-.082z"/></svg>