<svg xmlns="http://www.w3.org/2000/svg" width="32" height="32"><path d="M16.291 15.894a.559.559 0 0 1-.115-.379v-.55c0-.169.038-.297.115-.384s.208-.131.394-.131c.175 0 .299.037.373.112.08.095.119.212.11.329v.129h-.313v-.131a.683.683 0 0 0-.009-.128.123.123 0 0 0-.045-.076.185.185 0 0 0-.113-.03.189.189 0 0 0-.119.031.145.145 0 0 0-.052.084.62.62 0 0 0-.012.136v.668a.341.341 0 0 0 .04.187c.016.02.037.036.063.045s.053.014.081.011c.04.003.08-.008.111-.03a.133.133 0 0 0 .047-.081.749.749 0 0 0 .01-.134v-.135h.313v.124a.504.504 0 0 1-.108.346c-.072.082-.195.123-.375.123s-.316-.044-.394-.134zM17.596 15.9c-.079-.086-.119-.21-.119-.376v-.579c0-.163.04-.287.119-.371s.211-.126.397-.125c.184 0 .316.042.395.125s.119.208.119.371v.579c0 .163-.04.289-.121.375s-.211.129-.394.129c-.182 0-.317-.044-.397-.129zm.542-.139a.332.332 0 0 0 .038-.171v-.708a.311.311 0 0 0-.037-.168c-.016-.02-.038-.036-.064-.046s-.055-.013-.083-.01c-.028-.003-.057 0-.083.01s-.048.026-.064.046a.31.31 0 0 0-.038.168v.712a.311.311 0 0 0 .038.171c.018.018.041.033.066.042s.053.015.081.015c.028 0 .055-.005.081-.015s.048-.024.066-.042v-.003zM18.883 14.466h.337l.254 1.068.259-1.068h.328l.033 1.541h-.243l-.026-1.071-.25 1.071h-.194l-.259-1.075-.024 1.075h-.245l.03-1.541zM20.473 14.466h.525c.302 0 .454.146.454.438 0 .279-.159.419-.478.419h-.179v.685h-.324l.002-1.541zm.449.658a.252.252 0 0 0 .178-.048.25.25 0 0 0 .047-.174.474.474 0 0 0-.015-.14c-.005-.015-.013-.03-.024-.042s-.025-.023-.041-.031a.339.339 0 0 0-.145-.025h-.126v.46h.126zM21.92 14.466h.348l.357 1.541h-.302l-.071-.355h-.311l-.073.355h-.307l.357-1.541zm.297 1.007-.121-.647-.121.647h.242zM22.914 14.466h.227l.434.879v-.879h.269v1.541h-.216l-.437-.918v.918h-.278l.001-1.541zM24.475 15.419l-.361-.951h.304l.22.611.207-.611h.298l-.357.951v.588h-.311v-.588zM16.792 16.681v.081h-.265v.626h-.111v-.626h-.266v-.081h.641zM17.621 17.387h-.086a.042.042 0 0 1-.038-.023l-.076-.168h-.367l-.077.168a.039.039 0 0 1-.012.019.04.04 0 0 1-.024.007h-.086l.324-.707h.113l.328.704zm-.537-.262h.306l-.13-.288a.412.412 0 0 1-.024-.067l-.012.038-.012.03-.128.287zM18.18 17.318a.434.434 0 0 0 .203-.038v-.159h-.13l-.009-.001-.008-.004-.005-.006a.019.019 0 0 1-.002-.007v-.054h.252v.271a.5.5 0 0 1-.218.073.747.747 0 0 1-.095.004.525.525 0 0 1-.163-.026c-.049-.017-.093-.042-.13-.074a.324.324 0 0 1-.114-.259.324.324 0 0 1 .113-.26.377.377 0 0 1 .13-.073.536.536 0 0 1 .174-.026.506.506 0 0 1 .232.052.32.32 0 0 1 .056.037l-.031.044c-.002.004-.006.007-.011.01s-.01.004-.015.004a.036.036 0 0 1-.02-.006c-.01-.004-.02-.01-.032-.017-.014-.007-.028-.014-.043-.019a.377.377 0 0 0-.142-.022.376.376 0 0 0-.125.02.266.266 0 0 0-.095.056.238.238 0 0 0-.06.088.331.331 0 0 0 0 .236.244.244 0 0 0 .065.089.291.291 0 0 0 .095.056.368.368 0 0 0 .128.014zM19.214 17.307h.354v.081h-.462v-.707h.111l-.003.626zM19.937 17.387h-.111v-.707h.111v.707zM20.349 16.684a.07.07 0 0 1 .017.013l.474.533v-.552h.097v.71h-.056c-.008.001-.017-.001-.024-.004s-.013-.008-.018-.013l-.473-.532v.55h-.093v-.707h.058c.006 0 .013.001.018.003zM21.753 16.681v.078h-.393v.233h.318v.075h-.318v.241h.393v.078h-.507v-.705h.507zM10.132 12.316l4.924 1.206v4.228l-4.924-1.206v-4.228zm-.315-.36v4.794l5.555 1.361v-4.793l-5.555-1.362z"/><path d="m12.794 20.337-5.556-1.363V14.18l5.556 1.362v4.794z"/><path d="m9.909 12.262 4.86 1.191-2.067 1.784-4.861-1.192 2.067-1.783zm-.092-.306-2.578 2.225 5.556 1.362 2.578-2.225-5.555-1.362zM13.107 20.067l2.265-1.955-2.265-.556v2.511z"/></svg>