<svg xmlns="http://www.w3.org/2000/svg" width="32" height="32"><path d="m13.107 20.043.009.002a.018.018 0 0 1 .007.005l.042.04a.345.345 0 0 1-.118.075.474.474 0 0 1-.168.027.467.467 0 0 1-.158-.025.318.318 0 0 1-.196-.181.38.38 0 0 1 .002-.282c.018-.041.046-.078.082-.11s.079-.055.126-.071a.494.494 0 0 1 .162-.025.401.401 0 0 1 .264.086l-.035.042c-.002.003-.005.006-.009.008s-.009.004-.014.003a.027.027 0 0 1-.015-.005l-.019-.011-.026-.014a.365.365 0 0 0-.083-.025.354.354 0 0 0-.18.014.242.242 0 0 0-.15.137.285.285 0 0 0-.022.111.278.278 0 0 0 .022.113c.013.031.033.06.058.084.024.023.054.041.087.052a.35.35 0 0 0 .172.014.262.262 0 0 0 .139-.058.032.032 0 0 1 .02-.007zM14.321 19.844a.34.34 0 0 1-.028.14c-.017.041-.044.078-.079.108s-.077.055-.124.071a.515.515 0 0 1-.32 0c-.047-.016-.089-.041-.124-.071s-.062-.069-.08-.11a.358.358 0 0 1 0-.28.327.327 0 0 1 .204-.179.515.515 0 0 1 .32 0c.047.016.089.041.124.071s.062.068.079.108a.345.345 0 0 1 .028.141zm-.11 0a.288.288 0 0 0-.02-.112.234.234 0 0 0-.145-.137.368.368 0 0 0-.232 0 .257.257 0 0 0-.089.053.224.224 0 0 0-.057.084.323.323 0 0 0 0 .225c.012.031.031.06.057.084a.257.257 0 0 0 .089.053.383.383 0 0 0 .232 0 .234.234 0 0 0 .145-.137.288.288 0 0 0 .02-.112zM15.15 19.962l.011.025a.592.592 0 0 1 .026-.05l.269-.417c.005-.007.01-.012.015-.013a.055.055 0 0 1 .022-.002h.079v.679h-.094v-.543l-.27.423c-.003.006-.009.012-.016.015s-.015.006-.023.006h-.015c-.008 0-.016-.002-.023-.006s-.012-.009-.016-.016l-.278-.426v.545h-.091v-.677h.079c.007 0 .015 0 .022.002s.012.007.015.013l.274.418.014.024zM16.161 19.928v.254h-.105v-.678h.235a.484.484 0 0 1 .131.015.271.271 0 0 1 .093.042.187.187 0 0 1 .053.066.219.219 0 0 1-.001.174.194.194 0 0 1-.057.068.277.277 0 0 1-.093.045.491.491 0 0 1-.127.016l-.127-.002zm0-.073h.127a.31.31 0 0 0 .081-.01.171.171 0 0 0 .059-.029.128.128 0 0 0 .049-.102c.001-.019-.002-.038-.011-.055s-.021-.033-.037-.046a.223.223 0 0 0-.141-.036h-.127v.279zM17.574 20.183h-.083c-.008 0-.017-.002-.023-.006s-.011-.01-.014-.016l-.072-.164h-.359l-.074.164c-.003.006-.007.011-.013.015s-.015.007-.024.007h-.083l.315-.679h.109l.32.679zm-.52-.252h.297l-.125-.276a.493.493 0 0 1-.024-.064l-.012.035a.285.285 0 0 1-.012.029l-.124.276zM18.028 19.507a.048.048 0 0 1 .016.012l.46.512v-.527h.094v.679h-.053c-.007 0-.015-.001-.022-.004s-.012-.008-.017-.013l-.46-.511v.528h-.094v-.679h.056c.006 0 .013.001.019.003zM19.373 19.913v.27h-.105v-.27l-.291-.409h.094c.008 0 .016.002.023.006s.01.01.014.015l.182.264a.666.666 0 0 1 .032.06l.014-.029a.192.192 0 0 1 .018-.031l.179-.265c.004-.005.008-.01.014-.014s.014-.007.023-.007h.095l-.291.411zM15.098 18.365l.139.013c.709-.271 1.31-.715 1.725-1.276s.629-1.214.613-1.878l-.782-.668c.159.707.085 1.438-.215 2.11s-.812 1.261-1.48 1.699z"/><path d="m14.819 18.334.021.004c.714-.436 1.259-1.046 1.563-1.75s.355-1.469.144-2.198l-1.114-.951c.45.782.632 1.657.523 2.524s-.504 1.689-1.138 2.372zM18.595 16.008c-.189.729-.649 1.387-1.31 1.876a4.255 4.255 0 0 1-.623.382c.539-.135 1.034-.374 1.447-.699s.734-.726.937-1.173l-.452-.385z"/><path d="m18.418 15.901-.643-.549c-.012.626-.221 1.239-.604 1.773s-.926.971-1.574 1.265h.003c.144 0 .288-.007.432-.022.605-.211 1.14-.547 1.556-.977s.701-.942.83-1.49zM14.912 13.037l-.767-.656c-.686.226-1.276.624-1.692 1.142s-.641 1.131-.643 1.759c.003.694.276 1.368.777 1.914s1.201.934 1.989 1.103c.704-.732 1.115-1.637 1.176-2.584s-.234-1.884-.84-2.677zM20.19 15.8c-.003-.823-.387-1.613-1.068-2.195s-1.605-.91-2.569-.913c-.445 0-.887.07-1.302.207l4.697 4.013c.161-.355.243-.732.243-1.112z"/></svg>