<svg xmlns="http://www.w3.org/2000/svg" width="32" height="32"><path d="m13.333 12 1.335 1.272-2.478-.001v6.17h6.476v-2.359l1.333 1.27v-6.351h-6.667zm5.275 4.932-3.785-3.606h3.785v3.606zm-1.175 1.606h-4.218v-4.15h.298v3.869h3.92v.281zm-3.377 2.045-.157-.323h-.13l.228.428v.249h.118v-.249l.228-.428h-.129l-.157.323zm.58-.323h.028l.256.677h-.123l-.055-.159h-.262l-.055.159h-.122l.255-.677h.078zm-.124.426h.198l-.099-.287-.099.287zm.818-.112-.015-.019c-.017-.023-.031-.045-.04-.067s-.014-.044-.014-.067c0-.035.007-.066.022-.091s.035-.045.062-.059a.2.2 0 0 1 .093-.021c.034 0 .064.007.089.021s.044.032.058.054c.014.023.02.047.02.074a.155.155 0 0 1-.044.107.314.314 0 0 1-.047.041l-.047.034.134.158.012-.027a.286.286 0 0 0 .017-.099h.097a.396.396 0 0 1-.04.175.498.498 0 0 1-.019.03l.099.117h-.13l-.039-.046a.258.258 0 0 1-.069.038.305.305 0 0 1-.222-.007.186.186 0 0 1-.076-.068.184.184 0 0 1-.01-.172.214.214 0 0 1 .047-.059.578.578 0 0 1 .063-.05zm.056.068-.014.01c-.016.013-.029.026-.037.039s-.013.023-.015.034-.004.019-.004.027c0 .02.004.038.013.054s.021.029.038.039a.128.128 0 0 0 .061.014.179.179 0 0 0 .109-.038l-.151-.177zm.026-.124.042-.028c.02-.013.034-.026.042-.038s.013-.029.013-.047c0-.016-.006-.031-.019-.045s-.03-.02-.053-.02c-.016 0-.029.004-.04.011s-.019.017-.025.029a.098.098 0 0 0 .003.083c.007.015.017.03.029.046l.008.01zm1.185.199h-.116c-.003.029-.011.054-.021.075s-.026.035-.047.046a.167.167 0 0 1-.08.016c-.027 0-.051-.005-.07-.016s-.036-.026-.048-.046c-.012-.02-.022-.044-.028-.071s-.009-.059-.009-.093v-.057c0-.036.003-.068.01-.096s.017-.052.03-.071.03-.034.05-.044a.154.154 0 0 1 .07-.015c.033 0 .059.006.079.017s.035.027.046.047a.206.206 0 0 1 .02.075h.116c-.005-.045-.017-.085-.038-.12s-.049-.062-.087-.082-.083-.03-.137-.03c-.042 0-.081.007-.115.022s-.063.036-.087.065c-.024.028-.043.062-.056.101s-.019.083-.019.132v.056c0 .049.006.093.019.132s.031.073.055.101a.245.245 0 0 0 .199.086c.055 0 .101-.01.139-.03s.068-.047.089-.081a.26.26 0 0 0 .037-.119zm.646-.1v-.037c0-.051-.007-.097-.02-.137s-.032-.075-.057-.104c-.025-.029-.054-.051-.089-.066a.287.287 0 0 0-.228 0 .25.25 0 0 0-.089.066c-.025.029-.044.063-.058.104s-.02.086-.02.137v.037c0 .051.007.097.02.138s.034.075.059.104.055.05.089.066c.034.015.072.022.114.022s.08-.007.114-.022.064-.037.088-.066.044-.063.057-.104.02-.087.02-.138zm-.117-.038v.038c0 .038-.004.071-.011.1s-.018.054-.032.074a.137.137 0 0 1-.12.06.14.14 0 0 1-.121-.06c-.014-.02-.025-.045-.033-.074s-.011-.063-.011-.1v-.038c0-.038.004-.071.011-.1s.018-.053.032-.073c.014-.02.031-.035.052-.045s.043-.015.069-.015.049.005.069.015c.02.01.038.025.052.045s.025.044.032.073a.425.425 0 0 1 .011.1z"/></svg>