<!-- Generated by IcoMoon.io -->
<svg version="1.1" xmlns="http://www.w3.org/2000/svg" width="32" height="32" viewBox="0 0 32 32">
<title>Client2</title>
<path d="M15.641 11.797h-0.026c-0.040-0.002-0.080-0.003-0.12-0.004v0h-0.087c-0.076 0-0.153 0.002-0.229 0.006-0.006-0-0.012-0-0.017 0-0.694 0.039-1.374 0.213-2.003 0.511l-0.082 0.040v4.217l0.193-0.065c0.169-0.058 0.349-0.11 0.536-0.159 0.504-0.129 1.022-0.198 1.542-0.205v0.554c-0.069 0-0.136 0.002-0.203 0.006h-0.016c-0.4 0.022-0.798 0.083-1.186 0.182-0.492 0.123-0.967 0.308-1.413 0.551v-5.409c0.463-0.27 0.963-0.473 1.483-0.603 0.457-0.118 0.926-0.178 1.397-0.18h0.081c0.097 0.002 0.192 0.007 0.281 0.014 0.235 0.017 0.468 0.054 0.696 0.111v0.545c-0.222-0.052-0.447-0.086-0.675-0.102-0.005-0-0.009-0.001-0.014-0.001-0.047-0.004-0.094-0.008-0.138-0.008zM16.601 12.355c0.121 0.009 0.246 0.014 0.373 0.014 0.496-0.002 0.989-0.065 1.469-0.188 0.492-0.124 0.967-0.309 1.413-0.551v5.313c-0.464 0.27-0.963 0.473-1.483 0.603-0.457 0.117-0.926 0.178-1.397 0.18-0.357 0.003-0.713-0.039-1.060-0.125v-5.347c0.082 0.019 0.166 0.036 0.252 0.051 0.141 0.024 0.289 0.041 0.434 0.052zM19.304 12.396l-0.193 0.065c-0.177 0.060-0.356 0.113-0.536 0.16-0.523 0.134-1.061 0.203-1.601 0.205-0.126 0-0.241-0.003-0.353-0.011l-0.154-0.010v4.338l0.132 0.012c0.122 0.011 0.249 0.016 0.376 0.016 0.425-0.002 0.849-0.057 1.261-0.163 0.339-0.085 0.669-0.204 0.985-0.354l0.082-0.040v-4.219z"></path>
<path d="M12.902 19.279c-0.028-0.029-0.061-0.051-0.098-0.066s-0.077-0.022-0.116-0.020c-0.042-0.001-0.085 0.007-0.124 0.023-0.036 0.014-0.069 0.036-0.096 0.063s-0.048 0.061-0.062 0.097c-0.015 0.038-0.023 0.079-0.022 0.12v0.723c-0.002 0.051 0.008 0.102 0.028 0.148 0.017 0.037 0.042 0.070 0.072 0.097 0.029 0.024 0.063 0.042 0.099 0.051 0.035 0.010 0.071 0.015 0.108 0.015 0.040 0 0.080-0.008 0.117-0.025 0.036-0.016 0.069-0.038 0.096-0.067s0.048-0.061 0.063-0.097c0.015-0.036 0.023-0.076 0.023-0.115v-0.081h-0.189v0.064c0.001 0.022-0.003 0.044-0.011 0.064-0.006 0.015-0.015 0.029-0.027 0.041-0.012 0.009-0.025 0.017-0.040 0.021-0.013 0.004-0.026 0.007-0.040 0.007-0.017 0.002-0.034-0.001-0.050-0.007s-0.029-0.018-0.039-0.031c-0.018-0.029-0.027-0.063-0.025-0.097v-0.674c-0.001-0.037 0.007-0.074 0.023-0.108 0.010-0.015 0.024-0.027 0.040-0.035s0.035-0.011 0.052-0.008c0.016-0.001 0.032 0.003 0.047 0.010s0.027 0.018 0.037 0.031c0.021 0.028 0.032 0.062 0.031 0.097v0.062h0.187v-0.074c0-0.043-0.008-0.086-0.023-0.126-0.014-0.038-0.035-0.072-0.063-0.102z"></path>
<path d="M14.025 19.27c-0.060-0.051-0.136-0.079-0.215-0.079-0.038 0-0.077 0.007-0.113 0.020s-0.071 0.033-0.1 0.059c-0.031 0.028-0.056 0.063-0.073 0.101-0.019 0.044-0.028 0.092-0.027 0.14v0.693c-0.001 0.049 0.008 0.097 0.027 0.142 0.017 0.037 0.042 0.070 0.073 0.097 0.029 0.027 0.063 0.048 0.1 0.061s0.074 0.020 0.113 0.020c0.038-0 0.077-0.007 0.113-0.020 0.038-0.014 0.072-0.034 0.102-0.061s0.054-0.060 0.071-0.097c0.019-0.045 0.029-0.093 0.027-0.142v-0.693c0.001-0.048-0.008-0.096-0.027-0.14-0.017-0.038-0.041-0.073-0.071-0.101zM13.936 20.205c0.002 0.018-0.001 0.037-0.007 0.054s-0.017 0.033-0.030 0.046c-0.025 0.021-0.056 0.032-0.089 0.032s-0.064-0.011-0.089-0.032c-0.013-0.013-0.024-0.029-0.030-0.046s-0.009-0.036-0.007-0.054v-0.693c-0.002-0.018 0.001-0.037 0.007-0.054s0.017-0.033 0.030-0.046c0.025-0.021 0.056-0.032 0.089-0.032s0.064 0.011 0.089 0.032c0.013 0.013 0.024 0.029 0.030 0.046s0.009 0.036 0.007 0.054v0.693z"></path>
<path d="M15.499 20.514v-1.312h-0.182l-0.239 0.695h-0.003l-0.24-0.695h-0.18v1.312h0.187v-0.798h0.003l0.184 0.564h0.094l0.185-0.564h0.003v0.798h0.187z"></path>
<path d="M16.563 19.294c-0.029-0.032-0.065-0.057-0.106-0.072-0.044-0.014-0.090-0.021-0.136-0.020h-0.279v1.312h0.187v-0.512h0.096c0.058 0.003 0.116-0.010 0.169-0.036 0.043-0.024 0.078-0.058 0.103-0.1 0.022-0.035 0.036-0.074 0.043-0.114 0.007-0.049 0.011-0.099 0.010-0.149 0.002-0.063-0.004-0.126-0.018-0.187-0.012-0.045-0.036-0.087-0.069-0.121zM16.467 19.694c-0.001 0.024-0.007 0.047-0.017 0.068-0.011 0.020-0.028 0.036-0.048 0.046-0.028 0.012-0.058 0.018-0.088 0.016h-0.085v-0.446h0.096c0.029-0.001 0.058 0.004 0.084 0.016 0.019 0.011 0.035 0.028 0.044 0.048 0.010 0.023 0.016 0.048 0.016 0.073 0 0.028 0 0.057 0 0.087s0.002 0.062 0 0.090h-0.002z"></path>
<path d="M17.449 19.202h-0.153l-0.289 1.312h0.187l0.055-0.282h0.255l0.055 0.282h0.187l-0.296-1.312zM17.277 20.054l0.092-0.476h0.003l0.092 0.476h-0.187z"></path>
<path d="M18.657 19.992h-0.003l-0.282-0.79h-0.18v1.312h0.187v-0.789h0.004l0.286 0.789h0.176v-1.312h-0.187v0.79z"></path>
<path d="M19.8 19.202l-0.15 0.522h-0.004l-0.15-0.522h-0.198l0.257 0.758v0.555h0.187v-0.555l0.257-0.758h-0.198z"></path>
<path d="M12.381 20.885h0.090v0.253h0.061v-0.253h0.090v-0.052h-0.241v0.052z"></path>
<path d="M13.138 20.833l-0.118 0.305h0.065l0.025-0.069h0.121l0.026 0.069h0.066l-0.121-0.305h-0.065zM13.129 21.017l0.041-0.113 0.041 0.113h-0.083z"></path>
<path d="M13.887 21.025h0.070v0.039c-0.021 0.016-0.046 0.026-0.072 0.026-0.012 0.001-0.025-0.002-0.036-0.007s-0.021-0.013-0.029-0.022c-0.016-0.023-0.024-0.051-0.023-0.079 0-0.068 0.029-0.102 0.088-0.102 0.015-0.002 0.031 0.003 0.043 0.011s0.022 0.022 0.026 0.037l0.060-0.012c-0.013-0.060-0.056-0.090-0.129-0.090-0.039-0.001-0.077 0.013-0.106 0.039-0.015 0.015-0.027 0.034-0.035 0.054s-0.011 0.042-0.009 0.063c-0.002 0.042 0.012 0.082 0.039 0.114 0.015 0.015 0.033 0.027 0.053 0.035s0.041 0.011 0.063 0.010c0.048 0.001 0.094-0.016 0.129-0.048v-0.12h-0.132v0.051z"></path>
<path d="M14.652 20.833h-0.062v0.305h0.213v-0.052h-0.152v-0.253z"></path>
<path d="M15.299 20.833h-0.062v0.305h0.062v-0.305z"></path>
<path d="M15.931 21.036l-0.125-0.203h-0.060v0.305h0.057v-0.199l0.122 0.199h0.061v-0.305h-0.056v0.203z"></path>
<path d="M16.502 21.003h0.152v-0.052h-0.152v-0.067h0.163v-0.052h-0.225v0.305h0.231v-0.052h-0.17v-0.082z"></path>
<path d="M17.888 20.953h-0.12v-0.12h-0.061v0.305h0.061v-0.133h0.12v0.133h0.061v-0.305h-0.061v0.12z"></path>
<path d="M18.463 21.003h0.152v-0.052h-0.152v-0.067h0.164v-0.052h-0.225v0.305h0.231v-0.052h-0.17v-0.082z"></path>
<path d="M19.242 21.003c0.053-0.008 0.080-0.036 0.080-0.085 0.002-0.013-0-0.026-0.006-0.038s-0.014-0.022-0.024-0.030c-0.028-0.014-0.058-0.020-0.089-0.018h-0.129v0.305h0.061v-0.127h0.012c0.013-0.001 0.026 0.002 0.038 0.007 0.009 0.006 0.016 0.013 0.022 0.022l0.066 0.097h0.073l-0.037-0.060c-0.016-0.029-0.039-0.054-0.067-0.073zM19.181 20.961h-0.045v-0.077h0.048c0.021-0.002 0.042 0.001 0.062 0.007 0.004 0.004 0.008 0.009 0.010 0.014s0.003 0.011 0.003 0.017c-0 0.006-0.002 0.012-0.005 0.017s-0.007 0.010-0.012 0.013c-0.020 0.006-0.041 0.009-0.062 0.007z"></path>
<path d="M19.83 21.003h0.152v-0.052h-0.152v-0.067h0.164v-0.052h-0.226v0.305h0.231v-0.052h-0.17v-0.082z"></path>
</svg>
