<!-- Generated by IcoMoon.io -->
<svg version="1.1" xmlns="http://www.w3.org/2000/svg" width="32" height="32" viewBox="0 0 32 32">
<title>Client5</title>
<path d="M11.198 19.119c0.047 0.052 0.072 0.117 0.070 0.184 0.002 0.044-0.006 0.087-0.025 0.128s-0.048 0.076-0.084 0.105c-0.091 0.062-0.203 0.092-0.317 0.085h-0.557v-1.168h0.546c0.108-0.006 0.215 0.021 0.302 0.078 0.035 0.027 0.063 0.060 0.082 0.098s0.027 0.079 0.024 0.12c0.003 0.064-0.019 0.128-0.063 0.179-0.042 0.046-0.101 0.079-0.166 0.091 0.074 0.012 0.141 0.048 0.188 0.1zM10.545 18.942h0.233c0.053 0.004 0.106-0.010 0.148-0.039 0.018-0.014 0.031-0.032 0.040-0.052s0.012-0.041 0.010-0.062c0.002-0.021-0.002-0.042-0.010-0.062s-0.022-0.038-0.039-0.052c-0.044-0.029-0.098-0.043-0.153-0.039h-0.229v0.306zM10.949 19.39c0.019-0.015 0.033-0.033 0.043-0.054s0.014-0.043 0.012-0.065c0.001-0.023-0.003-0.045-0.013-0.066s-0.025-0.039-0.044-0.054c-0.046-0.030-0.102-0.045-0.158-0.042h-0.245v0.321h0.248c0.056 0.003 0.111-0.011 0.157-0.041z"></path>
<path d="M12.314 19.621l-0.304-0.456h-0.114v0.456h-0.261v-1.168h0.494c0.125-0.008 0.248 0.028 0.344 0.099 0.069 0.063 0.111 0.147 0.118 0.236s-0.022 0.177-0.081 0.248c-0.061 0.063-0.144 0.105-0.236 0.119l0.323 0.467h-0.284zM11.896 19.005h0.214c0.148 0 0.222-0.059 0.222-0.177 0.002-0.024-0.003-0.048-0.012-0.071s-0.024-0.043-0.043-0.060c-0.047-0.035-0.107-0.052-0.168-0.047h-0.216l0.003 0.355z"></path>
<path d="M13.741 19.386h-0.52l-0.092 0.235h-0.274l0.478-1.155h0.296l0.476 1.155h-0.274l-0.090-0.235zM13.672 19.209l-0.19-0.493-0.19 0.493h0.38z"></path>
<path d="M15.528 19.621h-0.259l-0.581-0.794v0.794h-0.259v-1.168h0.259l0.581 0.799v-0.799h0.259v1.168z"></path>
<path d="M17.008 19.341c-0.054 0.088-0.135 0.16-0.235 0.206-0.113 0.051-0.238 0.077-0.364 0.074h-0.461v-1.168h0.461c0.126-0.003 0.251 0.022 0.364 0.072 0.099 0.045 0.181 0.116 0.235 0.204 0.053 0.095 0.081 0.2 0.081 0.306s-0.028 0.211-0.081 0.306zM16.711 19.313c0.074-0.078 0.115-0.177 0.115-0.279s-0.041-0.201-0.115-0.279c-0.089-0.070-0.206-0.106-0.325-0.099h-0.18v0.756h0.18c0.118 0.007 0.235-0.029 0.325-0.099z"></path>
<path d="M13.904 11.956c0 0 3.346 1.137 3.275 2.783v2.784c0 0-3.344-1.138-3.274-2.784l-0.001-2.783z"></path>
<path d="M20.16 16.87c0.632-0.392 1.363-0.634 2.126-0.705v-0.871c-0.879 0.305-1.625 0.858-2.126 1.577z"></path>
<path d="M19.78 17.133c0.517-0.938 1.414-1.661 2.506-2.022v-2.511c0 0-4.765 1.62-4.665 3.964v3.963c0 0 0.212-0.072 0.546-0.208 0-0.127 0-0.255 0.015-0.383 0.099-1.088 0.673-2.096 1.597-2.803z"></path>
<path d="M19.327 18.605c0.025-0.275 0.081-0.547 0.167-0.811-0.576 0.61-0.924 1.368-0.997 2.166-0.007 0.075-0.011 0.151-0.013 0.228 0.271-0.117 0.586-0.263 0.917-0.435-0.085-0.378-0.11-0.764-0.074-1.148z"></path>
<path d="M19.516 18.619c-0.032 0.347-0.012 0.697 0.059 1.039 1.302-0.701 2.765-1.785 2.708-3.095v-0.114c-0.93 0.094-1.8 0.46-2.477 1.042-0.158 0.361-0.256 0.741-0.29 1.128z"></path>
</svg>
