<svg xmlns="http://www.w3.org/2000/svg" width="32" height="32"><path d="M10.682 14.765h-.001c-.454 0-.823.332-.823.742v.001c0 .41.368.742.823.742h.001c.454 0 .823-.332.823-.742v-.001c0-.41-.368-.742-.823-.742zM16.755 14.528c-.001-.569-.253-1.114-.699-1.517s-1.051-.629-1.682-.63c-.631.001-1.236.228-1.683.63s-.698.948-.699 1.517v3.138s4.763-.478 4.763-3.137zM8.19 18.696c.001.396.176.775.487 1.055s.731.438 1.17.439c.439-.001.86-.159 1.17-.439s.485-.659.487-1.055v-2.183s-3.314.333-3.314 2.183zm1.657.391c-.086 0-.17-.023-.241-.066s-.127-.104-.16-.176a.36.36 0 0 1 .094-.426c.061-.055.138-.092.222-.107s.171-.007.251.022c.079.03.147.08.195.144a.361.361 0 0 1-.054.494.446.446 0 0 1-.307.115v-.001zM12.878 18.384v.813h-.167v-.813h.167zm.324.347v.131h-.369v-.131h.369zm.039-.347v.131h-.408v-.131h.408zm.764.387v.038c0 .062-.008.117-.025.166s-.04.091-.071.126a.318.318 0 0 1-.249.106c-.051 0-.098-.009-.14-.027s-.079-.044-.109-.079c-.031-.035-.055-.076-.072-.126s-.025-.105-.025-.166v-.038c0-.062.008-.118.025-.166s.04-.091.071-.126c.031-.035.067-.061.109-.079s.089-.027.14-.027c.051 0 .098.009.14.027s.079.045.109.079c.031.035.055.076.071.126s.026.104.026.166zm-.169.039v-.04c0-.043-.004-.081-.012-.114s-.019-.06-.035-.083c-.015-.022-.034-.039-.056-.05s-.047-.017-.075-.017-.053.006-.075.017c-.022.011-.04.028-.055.05s-.026.05-.034.083-.012.071-.012.114v.04c0 .043.004.081.012.114s.019.06.035.083c.015.022.034.039.056.051s.047.017.075.017c.028 0 .053-.006.075-.017s.04-.028.055-.051c.015-.023.026-.05.034-.083s.012-.071.012-.114zm.713.174c0-.015-.002-.028-.007-.039s-.012-.023-.023-.032c-.012-.01-.028-.02-.049-.03s-.048-.02-.081-.03c-.037-.012-.072-.025-.105-.04s-.062-.032-.087-.052a.195.195 0 0 1-.08-.162c0-.034.007-.065.022-.092s.036-.052.063-.071c.027-.02.058-.036.095-.046s.077-.016.121-.016c.06 0 .112.011.157.032s.079.051.104.089a.23.23 0 0 1 .037.129h-.166c0-.024-.005-.045-.015-.063s-.025-.033-.045-.043a.167.167 0 0 0-.075-.016c-.029 0-.053.004-.073.013s-.034.02-.044.035a.085.085 0 0 0-.014.049c0 .014.003.026.01.037s.018.022.031.031.031.019.051.027c.02.009.043.017.07.025.044.013.083.028.117.045s.062.036.085.056.04.044.051.071a.213.213 0 0 1 .017.09.195.195 0 0 1-.081.166c-.026.019-.057.034-.093.044a.45.45 0 0 1-.347-.05c-.032-.022-.057-.049-.076-.083s-.028-.073-.028-.119h.168c0 .025.004.047.012.064s.019.032.033.042c.014.011.032.019.051.023s.042.007.066.007c.029 0 .053-.004.071-.012s.033-.02.042-.034a.093.093 0 0 0 .014-.049zm.644-.6v.813h-.167v-.813h.167zm.25 0v.131h-.663v-.131h.663zm.641.682v.131h-.432v-.131h.432zm-.378-.682v.813h-.167v-.813h.167zm.321.331v.127h-.376v-.127h.376zm.056-.331v.131h-.432v-.131h.432zm.098 0h.303c.062 0 .116.009.16.028s.08.046.104.083.036.081.036.134c0 .044-.007.081-.022.112s-.035.057-.062.078a.316.316 0 0 1-.093.049l-.053.028h-.263l-.001-.131h.196c.029 0 .054-.005.073-.016s.034-.025.044-.044a.136.136 0 0 0 .015-.065c0-.026-.005-.049-.015-.068s-.024-.034-.044-.044a.162.162 0 0 0-.074-.015h-.136v.681h-.167v-.813zm.455.812-.185-.362.177-.001.188.355v.008h-.179zm.879-.289h-.207v-.131h.207c.032 0 .058-.005.078-.016s.035-.026.044-.045.014-.04.014-.064-.005-.047-.014-.068-.024-.038-.044-.05a.14.14 0 0 0-.078-.019h-.149v.681h-.167v-.813h.316c.064 0 .118.012.163.035s.081.054.105.094.036.086.036.138c0 .052-.012.098-.036.136s-.059.068-.105.089a.386.386 0 0 1-.163.031zm.965.159v.131h-.432v-.131h.432zm-.378-.682v.813h-.167v-.813h.167zm.322.331v.127h-.376v-.127h.376zm.055-.331v.131h-.432v-.131h.432zm.473 0v.813h-.167v-.813h.167zm.25 0v.131h-.663v-.131h.663zm.641.682v.131h-.432v-.131h.432zm-.378-.682v.813h-.167v-.813h.167zm.321.331v.127h-.376v-.127h.376zm.056-.331v.131h-.432v-.131h.432zm.098 0h.303c.062 0 .115.009.16.028s.08.046.104.083.036.081.036.134c0 .044-.007.081-.022.112s-.035.057-.062.078a.329.329 0 0 1-.093.049l-.053.028h-.263l-.001-.131h.196c.029 0 .054-.005.073-.016s.034-.025.044-.044a.159.159 0 0 0 .001-.133.094.094 0 0 0-.044-.044.162.162 0 0 0-.074-.015h-.136v.681h-.167v-.813zm.455.812-.185-.362.177-.001.187.355v.008h-.179zm.7-.212c0-.015-.002-.028-.007-.039s-.012-.023-.023-.032c-.011-.01-.028-.02-.049-.03s-.048-.02-.081-.03c-.037-.012-.072-.025-.105-.04s-.062-.032-.087-.052a.195.195 0 0 1-.08-.162c0-.034.007-.065.022-.092s.036-.052.062-.071c.027-.02.058-.036.095-.046s.077-.016.121-.016c.06 0 .112.011.157.032s.079.051.104.089a.23.23 0 0 1 .037.129h-.166c0-.024-.005-.045-.015-.063s-.025-.033-.045-.043a.167.167 0 0 0-.075-.016c-.029 0-.053.004-.073.013s-.034.02-.043.035a.085.085 0 0 0-.014.049c0 .014.003.026.01.037s.017.022.031.031c.014.01.031.019.051.027s.043.017.07.025c.044.013.083.028.117.045s.062.036.085.056.04.044.051.071a.23.23 0 0 1 .017.09.195.195 0 0 1-.081.166c-.026.019-.057.034-.093.044a.45.45 0 0 1-.346-.05c-.032-.022-.057-.049-.076-.083s-.028-.073-.028-.119h.168c0 .025.004.047.012.064s.019.032.033.042c.014.011.032.019.051.023s.042.007.066.007c.029 0 .053-.004.071-.012s.033-.02.042-.034a.093.093 0 0 0 .014-.049z"/></svg>