<!-- Generated by IcoMoon.io -->
<svg version="1.1" xmlns="http://www.w3.org/2000/svg" width="32" height="32" viewBox="0 0 32 32">
<title>Client1</title>
<path d="M13.333 12l1.335 1.272-2.478-0.001v6.17h6.476v-2.359l1.333 1.27v-6.351h-6.667zM18.608 16.932l-3.785-3.606h3.785v3.606zM17.433 18.538h-4.218v-4.15h0.298v3.869h3.92v0.281zM14.056 20.583l-0.157-0.323h-0.13l0.228 0.428v0.249h0.118v-0.249l0.228-0.428h-0.129l-0.157 0.323zM14.636 20.26h0.028l0.256 0.677h-0.123l-0.055-0.159h-0.262l-0.055 0.159h-0.122l0.255-0.677h0.078zM14.512 20.686h0.198l-0.099-0.287-0.099 0.287zM15.33 20.574c-0.005-0.006-0.010-0.013-0.015-0.019-0.017-0.023-0.031-0.045-0.040-0.067s-0.014-0.044-0.014-0.067c0-0.035 0.007-0.066 0.022-0.091s0.035-0.045 0.062-0.059c0.027-0.014 0.058-0.021 0.093-0.021 0.034 0 0.064 0.007 0.089 0.021s0.044 0.032 0.058 0.054c0.014 0.023 0.020 0.047 0.020 0.074 0 0.021-0.004 0.041-0.012 0.059s-0.018 0.034-0.032 0.048c-0.014 0.015-0.029 0.028-0.047 0.041l-0.047 0.034 0.134 0.158c0.004-0.009 0.008-0.018 0.012-0.027 0.011-0.030 0.017-0.063 0.017-0.099h0.097c0 0.033-0.003 0.064-0.010 0.093s-0.016 0.057-0.030 0.082c-0.006 0.010-0.012 0.020-0.019 0.030l0.099 0.117h-0.13l-0.039-0.046c-0.021 0.016-0.044 0.029-0.069 0.038-0.033 0.012-0.068 0.018-0.105 0.018-0.045 0-0.084-0.008-0.117-0.025s-0.058-0.039-0.076-0.068c-0.018-0.029-0.027-0.062-0.027-0.099 0-0.028 0.006-0.052 0.017-0.073s0.027-0.041 0.047-0.059c0.018-0.017 0.039-0.033 0.063-0.050zM15.386 20.642l-0.014 0.010c-0.016 0.013-0.029 0.026-0.037 0.039s-0.013 0.023-0.015 0.034-0.004 0.019-0.004 0.027c0 0.020 0.004 0.038 0.013 0.054s0.021 0.029 0.038 0.039c0.017 0.009 0.037 0.014 0.061 0.014 0.026 0 0.051-0.006 0.075-0.017 0.012-0.006 0.024-0.013 0.034-0.021l-0.151-0.177zM15.412 20.518l0.042-0.028c0.020-0.013 0.034-0.026 0.042-0.038s0.013-0.029 0.013-0.047c0-0.016-0.006-0.031-0.019-0.045s-0.030-0.020-0.053-0.020c-0.016 0-0.029 0.004-0.040 0.011s-0.019 0.017-0.025 0.029c-0.005 0.012-0.008 0.025-0.008 0.040s0.004 0.028 0.011 0.043c0.007 0.015 0.017 0.030 0.029 0.046 0.003 0.003 0.005 0.006 0.008 0.010zM16.597 20.717h-0.116c-0.003 0.029-0.011 0.054-0.021 0.075s-0.026 0.035-0.047 0.046c-0.020 0.011-0.047 0.016-0.080 0.016-0.027 0-0.051-0.005-0.070-0.016s-0.036-0.026-0.048-0.046c-0.012-0.020-0.022-0.044-0.028-0.071s-0.009-0.059-0.009-0.093v-0.057c0-0.036 0.003-0.068 0.010-0.096s0.017-0.052 0.030-0.071 0.030-0.034 0.050-0.044c0.020-0.010 0.043-0.015 0.070-0.015 0.033 0 0.059 0.006 0.079 0.017s0.035 0.027 0.046 0.047c0.011 0.021 0.017 0.046 0.020 0.075h0.116c-0.005-0.045-0.017-0.085-0.038-0.12s-0.049-0.062-0.087-0.082-0.083-0.030-0.137-0.030c-0.042 0-0.081 0.007-0.115 0.022s-0.063 0.036-0.087 0.065c-0.024 0.028-0.043 0.062-0.056 0.101s-0.019 0.083-0.019 0.132v0.056c0 0.049 0.006 0.093 0.019 0.132s0.031 0.073 0.055 0.101c0.024 0.028 0.053 0.049 0.086 0.064s0.071 0.022 0.113 0.022c0.055 0 0.101-0.010 0.139-0.030s0.068-0.047 0.089-0.081c0.021-0.035 0.034-0.074 0.037-0.119zM17.243 20.617v-0.037c0-0.051-0.007-0.097-0.020-0.137s-0.032-0.075-0.057-0.104c-0.025-0.029-0.054-0.051-0.089-0.066s-0.073-0.023-0.114-0.023c-0.042 0-0.080 0.008-0.114 0.023s-0.064 0.037-0.089 0.066c-0.025 0.029-0.044 0.063-0.058 0.104s-0.020 0.086-0.020 0.137v0.037c0 0.051 0.007 0.097 0.020 0.138s0.034 0.075 0.059 0.104 0.055 0.050 0.089 0.066c0.034 0.015 0.072 0.022 0.114 0.022s0.080-0.007 0.114-0.022c0.034-0.015 0.064-0.037 0.088-0.066s0.044-0.063 0.057-0.104 0.020-0.087 0.020-0.138zM17.126 20.579v0.038c0 0.038-0.004 0.071-0.011 0.1s-0.018 0.054-0.032 0.074c-0.014 0.020-0.031 0.035-0.051 0.045s-0.043 0.015-0.069 0.015c-0.026 0-0.049-0.005-0.069-0.015s-0.038-0.025-0.052-0.045c-0.014-0.020-0.025-0.045-0.033-0.074s-0.011-0.063-0.011-0.1v-0.038c0-0.038 0.004-0.071 0.011-0.1s0.018-0.053 0.032-0.073c0.014-0.020 0.031-0.035 0.052-0.045s0.043-0.015 0.069-0.015 0.049 0.005 0.069 0.015c0.020 0.010 0.038 0.025 0.052 0.045s0.025 0.044 0.032 0.073c0.007 0.029 0.011 0.062 0.011 0.1z"></path>
</svg>
