<svg xmlns="http://www.w3.org/2000/svg" width="32" height="32"><path d="M11.198 19.119a.262.262 0 0 1 .07.184c.002.044-.006.087-.025.128s-.048.076-.084.105a.508.508 0 0 1-.317.085h-.557v-1.168h.546a.502.502 0 0 1 .302.078c.035.027.063.06.082.098s.027.079.024.12a.256.256 0 0 1-.063.179.3.3 0 0 1-.166.091.324.324 0 0 1 .188.1zm-.653-.177h.233a.231.231 0 0 0 .148-.039c.018-.014.031-.032.04-.052s.012-.041.01-.062a.133.133 0 0 0-.049-.114.246.246 0 0 0-.153-.039h-.229v.306zm.404.448c.019-.015.033-.033.043-.054s.014-.043.012-.065c.001-.023-.003-.045-.013-.066s-.025-.039-.044-.054a.265.265 0 0 0-.158-.042h-.245v.321h.248a.261.261 0 0 0 .157-.041zM12.314 19.621l-.304-.456h-.114v.456h-.261v-1.168h.494a.525.525 0 0 1 .344.099.345.345 0 0 1 .037.484.414.414 0 0 1-.236.119l.323.467h-.284zm-.418-.616h.214c.148 0 .222-.059.222-.177a.159.159 0 0 0-.055-.131.248.248 0 0 0-.168-.047h-.216l.003.355zM13.741 19.386h-.52l-.092.235h-.274l.478-1.155h.296l.476 1.155h-.274l-.09-.235zm-.069-.177-.19-.493-.19.493h.38zM15.528 19.621h-.259l-.581-.794v.794h-.259v-1.168h.259l.581.799v-.799h.259v1.168zM17.008 19.341a.537.537 0 0 1-.235.206.839.839 0 0 1-.364.074h-.461v-1.168h.461a.852.852 0 0 1 .364.072.532.532 0 0 1 .235.204.628.628 0 0 1 0 .612zm-.297-.028c.074-.078.115-.177.115-.279s-.041-.201-.115-.279a.482.482 0 0 0-.325-.099h-.18v.756h.18a.486.486 0 0 0 .325-.099zM13.904 11.956s3.346 1.137 3.275 2.783v2.784s-3.344-1.138-3.274-2.784l-.001-2.783zM20.16 16.87a4.899 4.899 0 0 1 2.126-.705v-.871c-.879.305-1.625.858-2.126 1.577z"/><path d="M19.78 17.133c.517-.938 1.414-1.661 2.506-2.022V12.6s-4.765 1.62-4.665 3.964v3.963s.212-.072.546-.208c0-.127 0-.255.015-.383.099-1.088.673-2.096 1.597-2.803z"/><path d="M19.327 18.605a3.7 3.7 0 0 1 .167-.811 3.639 3.639 0 0 0-1.01 2.394c.271-.117.586-.263.917-.435a3.664 3.664 0 0 1-.074-1.148zM19.516 18.619a3.52 3.52 0 0 0 .059 1.039c1.302-.701 2.765-1.785 2.708-3.095v-.114c-.93.094-1.8.46-2.477 1.042a3.596 3.596 0 0 0-.29 1.128z"/></svg>