<!-- Generated by IcoMoon.io -->
<svg version="1.1" xmlns="http://www.w3.org/2000/svg" width="32" height="32" viewBox="0 0 32 32">
<title>Client6</title>
<path d="M16.291 15.894c-0.085-0.113-0.125-0.246-0.115-0.379v-0.55c0-0.169 0.038-0.297 0.115-0.384s0.208-0.131 0.394-0.131c0.175 0 0.299 0.037 0.373 0.112 0.080 0.095 0.119 0.212 0.11 0.329v0.129h-0.313v-0.131c0.001-0.043-0.002-0.086-0.009-0.128-0.005-0.029-0.020-0.056-0.045-0.076-0.032-0.022-0.073-0.032-0.113-0.030-0.043-0.003-0.085 0.008-0.119 0.031-0.027 0.022-0.046 0.052-0.052 0.084-0.009 0.045-0.013 0.090-0.012 0.136v0.668c-0.005 0.064 0.009 0.129 0.040 0.187 0.016 0.020 0.037 0.036 0.063 0.045s0.053 0.014 0.081 0.011c0.040 0.003 0.080-0.008 0.111-0.030 0.026-0.022 0.042-0.050 0.047-0.081 0.007-0.044 0.011-0.089 0.010-0.134v-0.135h0.313v0.124c0.009 0.122-0.029 0.244-0.108 0.346-0.072 0.082-0.195 0.123-0.375 0.123s-0.316-0.044-0.394-0.134z"></path>
<path d="M17.596 15.9c-0.079-0.086-0.119-0.21-0.119-0.376v-0.579c0-0.163 0.040-0.287 0.119-0.371s0.211-0.126 0.397-0.125c0.184 0 0.316 0.042 0.395 0.125s0.119 0.208 0.119 0.371v0.579c0 0.163-0.040 0.289-0.121 0.375s-0.211 0.129-0.394 0.129c-0.182 0-0.317-0.044-0.397-0.129zM18.138 15.761c0.028-0.054 0.041-0.112 0.038-0.171v-0.708c0.004-0.058-0.009-0.115-0.037-0.168-0.016-0.020-0.038-0.036-0.064-0.046s-0.055-0.013-0.083-0.010c-0.028-0.003-0.057 0-0.083 0.010s-0.048 0.026-0.064 0.046c-0.029 0.052-0.041 0.11-0.038 0.168v0.712c-0.004 0.059 0.009 0.118 0.038 0.171 0.018 0.018 0.041 0.033 0.066 0.042s0.053 0.015 0.081 0.015c0.028 0 0.055-0.005 0.081-0.015s0.048-0.024 0.066-0.042v-0.003z"></path>
<path d="M18.883 14.466h0.337l0.254 1.068 0.259-1.068h0.328l0.033 1.541h-0.243l-0.026-1.071-0.25 1.071h-0.194l-0.259-1.075-0.024 1.075h-0.245l0.030-1.541z"></path>
<path d="M20.473 14.466h0.525c0.302 0 0.454 0.146 0.454 0.438 0 0.279-0.159 0.419-0.478 0.419h-0.179v0.685h-0.324l0.002-1.541zM20.922 15.124c0.032 0.004 0.065 0.001 0.095-0.007s0.059-0.022 0.083-0.041c0.037-0.052 0.054-0.113 0.047-0.174 0.002-0.047-0.003-0.094-0.015-0.14-0.005-0.015-0.013-0.030-0.024-0.042s-0.025-0.023-0.041-0.031c-0.045-0.019-0.095-0.027-0.145-0.025h-0.126v0.46h0.126z"></path>
<path d="M21.92 14.466h0.348l0.357 1.541h-0.302l-0.071-0.355h-0.311l-0.073 0.355h-0.307l0.357-1.541zM22.217 15.473l-0.121-0.647-0.121 0.647h0.242z"></path>
<path d="M22.914 14.466h0.227l0.434 0.879v-0.879h0.269v1.541h-0.216l-0.437-0.918v0.918h-0.278l0.001-1.541z"></path>
<path d="M24.475 15.419l-0.361-0.951h0.304l0.22 0.611 0.207-0.611h0.298l-0.357 0.951v0.588h-0.311v-0.588z"></path>
<path d="M16.792 16.681v0.081h-0.265v0.626h-0.111v-0.626h-0.266v-0.081h0.641z"></path>
<path d="M17.621 17.387h-0.086c-0.009 0-0.017-0.002-0.024-0.007s-0.011-0.010-0.014-0.016l-0.076-0.168h-0.367l-0.077 0.168c-0.002 0.007-0.006 0.014-0.012 0.019-0.007 0.005-0.015 0.007-0.024 0.007h-0.086l0.324-0.707h0.113l0.328 0.704zM17.084 17.125h0.306l-0.13-0.288c-0.010-0.022-0.018-0.044-0.024-0.067-0.005 0.013-0.008 0.026-0.012 0.038l-0.012 0.030-0.128 0.287z"></path>
<path d="M18.18 17.318c0.020 0.001 0.041 0.001 0.061 0 0.018-0.002 0.035-0.004 0.052-0.008 0.016-0.003 0.032-0.008 0.047-0.013s0.029-0.011 0.043-0.017v-0.159h-0.13c-0.003 0-0.006-0-0.009-0.001s-0.006-0.002-0.008-0.004c-0.002-0.002-0.004-0.004-0.005-0.006s-0.002-0.005-0.002-0.007v-0.054h0.252v0.271c-0.021 0.013-0.042 0.024-0.065 0.034s-0.047 0.018-0.072 0.024c-0.026 0.007-0.054 0.012-0.081 0.015-0.031 0.003-0.063 0.005-0.095 0.004-0.056 0-0.111-0.009-0.163-0.026-0.049-0.017-0.093-0.042-0.13-0.074s-0.065-0.070-0.084-0.112c-0.020-0.047-0.031-0.097-0.030-0.147-0.001-0.050 0.009-0.1 0.029-0.148 0.019-0.042 0.047-0.080 0.084-0.112s0.081-0.057 0.13-0.073c0.056-0.018 0.114-0.027 0.174-0.026 0.030-0 0.060 0.002 0.090 0.006 0.026 0.004 0.052 0.010 0.077 0.018 0.023 0.007 0.044 0.017 0.065 0.028s0.039 0.023 0.056 0.037l-0.031 0.044c-0.002 0.004-0.006 0.007-0.011 0.010s-0.010 0.004-0.015 0.004c-0.007-0-0.014-0.002-0.020-0.006-0.010-0.004-0.020-0.010-0.032-0.017-0.014-0.007-0.028-0.014-0.043-0.019-0.019-0.007-0.039-0.012-0.060-0.016-0.027-0.004-0.055-0.006-0.082-0.006-0.043-0-0.085 0.006-0.125 0.020-0.036 0.012-0.069 0.032-0.095 0.056-0.027 0.025-0.047 0.055-0.060 0.088-0.029 0.077-0.029 0.159 0 0.236 0.014 0.033 0.036 0.064 0.065 0.089 0.027 0.024 0.059 0.043 0.095 0.056 0.041 0.012 0.085 0.017 0.128 0.014z"></path>
<path d="M19.214 17.307h0.354v0.081h-0.462v-0.707h0.111l-0.003 0.626z"></path>
<path d="M19.937 17.387h-0.111v-0.707h0.111v0.707z"></path>
<path d="M20.349 16.684c0.006 0.003 0.012 0.008 0.017 0.013l0.474 0.533c-0.001-0.008-0.001-0.017 0-0.025s0-0.016 0-0.023v-0.504h0.097v0.71h-0.056c-0.008 0.001-0.017-0.001-0.024-0.004s-0.013-0.008-0.018-0.013l-0.473-0.532c0 0.008 0 0.016 0 0.024s0 0.015 0 0.022v0.504h-0.093v-0.707h0.058c0.006 0 0.013 0.001 0.018 0.003z"></path>
<path d="M21.753 16.681v0.078h-0.393v0.233h0.318v0.075h-0.318v0.241h0.393v0.078h-0.507v-0.705h0.507z"></path>
<path d="M10.132 12.316l4.924 1.206v4.228l-4.924-1.206v-4.228zM9.817 11.956v4.794l5.555 1.361v-4.793l-5.555-1.362z"></path>
<path d="M12.794 20.337l-5.556-1.363v-4.794l5.556 1.362v4.794z"></path>
<path d="M9.909 12.262l4.86 1.191-2.067 1.784-4.861-1.192 2.067-1.783zM9.817 11.956l-2.578 2.225 5.556 1.362 2.578-2.225-5.555-1.362z"></path>
<path d="M13.107 20.067l2.265-1.955-2.265-0.556v2.511z"></path>
</svg>
